<mxfile host="app.diagrams.net" modified="2023-08-03T05:43:46.122Z" agent="Mozilla/5.0 (Windows NT 10.0; Win64; x64) AppleWebKit/537.36 (KHTML, like Gecko) Chrome/114.0.0.0 Safari/537.36" etag="1wY3p1ZBuHSM_1qHfU4u" version="21.6.6" type="device">
  <diagram name="Page-1" id="AdCNNsRr4zbK5NphnIRh">
    <mxGraphModel dx="1914" dy="1038" grid="1" gridSize="10" guides="1" tooltips="1" connect="1" arrows="1" fold="1" page="1" pageScale="1" pageWidth="850" pageHeight="1100" math="0" shadow="0">
      <root>
        <mxCell id="0" />
        <mxCell id="1" parent="0" />
        <mxCell id="GEuDZ0JmBheD2s2upxKQ-3" value="" style="edgeStyle=orthogonalEdgeStyle;rounded=0;orthogonalLoop=1;jettySize=auto;html=1;" parent="1" source="GEuDZ0JmBheD2s2upxKQ-1" target="GEuDZ0JmBheD2s2upxKQ-2" edge="1">
          <mxGeometry relative="1" as="geometry" />
        </mxCell>
        <mxCell id="GEuDZ0JmBheD2s2upxKQ-1" value="Start" style="ellipse;whiteSpace=wrap;html=1;fillColor=#f8cecc;strokeColor=#b85450;" parent="1" vertex="1">
          <mxGeometry x="20" y="20" width="120" height="80" as="geometry" />
        </mxCell>
        <mxCell id="GEuDZ0JmBheD2s2upxKQ-5" value="" style="edgeStyle=orthogonalEdgeStyle;rounded=0;orthogonalLoop=1;jettySize=auto;html=1;" parent="1" source="GEuDZ0JmBheD2s2upxKQ-2" target="GEuDZ0JmBheD2s2upxKQ-4" edge="1">
          <mxGeometry relative="1" as="geometry" />
        </mxCell>
        <mxCell id="GEuDZ0JmBheD2s2upxKQ-2" value="Login" style="rounded=1;whiteSpace=wrap;html=1;fillColor=#dae8fc;strokeColor=#6c8ebf;" parent="1" vertex="1">
          <mxGeometry x="20" y="150" width="120" height="60" as="geometry" />
        </mxCell>
        <mxCell id="GEuDZ0JmBheD2s2upxKQ-7" value="" style="edgeStyle=orthogonalEdgeStyle;rounded=0;orthogonalLoop=1;jettySize=auto;html=1;" parent="1" source="GEuDZ0JmBheD2s2upxKQ-4" target="GEuDZ0JmBheD2s2upxKQ-6" edge="1">
          <mxGeometry relative="1" as="geometry" />
        </mxCell>
        <mxCell id="GEuDZ0JmBheD2s2upxKQ-4" value="Search for a job role" style="rounded=1;whiteSpace=wrap;html=1;fillColor=#dae8fc;strokeColor=#6c8ebf;" parent="1" vertex="1">
          <mxGeometry x="20" y="260" width="120" height="60" as="geometry" />
        </mxCell>
        <mxCell id="I5Enc08s2ud8R-opfXtH-7" value="" style="edgeStyle=orthogonalEdgeStyle;rounded=0;orthogonalLoop=1;jettySize=auto;html=1;" parent="1" source="GEuDZ0JmBheD2s2upxKQ-6" target="I5Enc08s2ud8R-opfXtH-6" edge="1">
          <mxGeometry relative="1" as="geometry" />
        </mxCell>
        <mxCell id="GEuDZ0JmBheD2s2upxKQ-6" value="Check search results" style="rounded=1;whiteSpace=wrap;html=1;fillColor=#dae8fc;strokeColor=#6c8ebf;" parent="1" vertex="1">
          <mxGeometry x="20" y="370" width="120" height="60" as="geometry" />
        </mxCell>
        <mxCell id="GEuDZ0JmBheD2s2upxKQ-15" value="" style="edgeStyle=orthogonalEdgeStyle;rounded=0;orthogonalLoop=1;jettySize=auto;html=1;" parent="1" source="GEuDZ0JmBheD2s2upxKQ-10" target="GEuDZ0JmBheD2s2upxKQ-14" edge="1">
          <mxGeometry relative="1" as="geometry" />
        </mxCell>
        <mxCell id="GEuDZ0JmBheD2s2upxKQ-18" value="" style="edgeStyle=orthogonalEdgeStyle;rounded=0;orthogonalLoop=1;jettySize=auto;html=1;" parent="1" source="GEuDZ0JmBheD2s2upxKQ-10" target="GEuDZ0JmBheD2s2upxKQ-13" edge="1">
          <mxGeometry relative="1" as="geometry" />
        </mxCell>
        <mxCell id="GEuDZ0JmBheD2s2upxKQ-10" value="Matches job &lt;br&gt;criteria?" style="rhombus;whiteSpace=wrap;html=1;fillColor=#fff2cc;strokeColor=#d6b656;" parent="1" vertex="1">
          <mxGeometry x="210" y="470" width="120" height="80" as="geometry" />
        </mxCell>
        <mxCell id="GEuDZ0JmBheD2s2upxKQ-20" value="" style="edgeStyle=orthogonalEdgeStyle;rounded=0;orthogonalLoop=1;jettySize=auto;html=1;" parent="1" source="GEuDZ0JmBheD2s2upxKQ-13" edge="1">
          <mxGeometry relative="1" as="geometry">
            <mxPoint x="270" y="710" as="targetPoint" />
          </mxGeometry>
        </mxCell>
        <mxCell id="GEuDZ0JmBheD2s2upxKQ-13" value="View job details" style="rounded=1;whiteSpace=wrap;html=1;fillColor=#dae8fc;strokeColor=#6c8ebf;" parent="1" vertex="1">
          <mxGeometry x="210" y="600" width="120" height="60" as="geometry" />
        </mxCell>
        <mxCell id="I5Enc08s2ud8R-opfXtH-10" style="edgeStyle=orthogonalEdgeStyle;rounded=0;orthogonalLoop=1;jettySize=auto;html=1;entryX=1;entryY=0.5;entryDx=0;entryDy=0;" parent="1" source="GEuDZ0JmBheD2s2upxKQ-14" target="GEuDZ0JmBheD2s2upxKQ-4" edge="1">
          <mxGeometry relative="1" as="geometry">
            <Array as="points">
              <mxPoint x="450" y="290" />
            </Array>
          </mxGeometry>
        </mxCell>
        <mxCell id="GEuDZ0JmBheD2s2upxKQ-14" value="Use other keywords" style="rounded=1;whiteSpace=wrap;html=1;fillColor=#dae8fc;strokeColor=#6c8ebf;" parent="1" vertex="1">
          <mxGeometry x="390" y="480" width="120" height="60" as="geometry" />
        </mxCell>
        <mxCell id="GEuDZ0JmBheD2s2upxKQ-22" value="" style="edgeStyle=orthogonalEdgeStyle;rounded=0;orthogonalLoop=1;jettySize=auto;html=1;" parent="1" edge="1">
          <mxGeometry relative="1" as="geometry">
            <mxPoint x="330" y="740" as="sourcePoint" />
            <mxPoint x="390" y="740" as="targetPoint" />
          </mxGeometry>
        </mxCell>
        <mxCell id="GEuDZ0JmBheD2s2upxKQ-24" value="Check profile completeness" style="rounded=1;whiteSpace=wrap;html=1;fillColor=#dae8fc;strokeColor=#6c8ebf;" parent="1" vertex="1">
          <mxGeometry x="210" y="710" width="120" height="60" as="geometry" />
        </mxCell>
        <mxCell id="GEuDZ0JmBheD2s2upxKQ-31" value="" style="edgeStyle=orthogonalEdgeStyle;rounded=0;orthogonalLoop=1;jettySize=auto;html=1;" parent="1" source="GEuDZ0JmBheD2s2upxKQ-27" target="GEuDZ0JmBheD2s2upxKQ-29" edge="1">
          <mxGeometry relative="1" as="geometry" />
        </mxCell>
        <mxCell id="I5Enc08s2ud8R-opfXtH-21" value="" style="edgeStyle=orthogonalEdgeStyle;rounded=0;orthogonalLoop=1;jettySize=auto;html=1;" parent="1" source="GEuDZ0JmBheD2s2upxKQ-27" target="GEuDZ0JmBheD2s2upxKQ-30" edge="1">
          <mxGeometry relative="1" as="geometry" />
        </mxCell>
        <mxCell id="GEuDZ0JmBheD2s2upxKQ-27" value="Profile complete?" style="rhombus;whiteSpace=wrap;html=1;fillColor=#fff2cc;strokeColor=#d6b656;" parent="1" vertex="1">
          <mxGeometry x="390" y="700" width="120" height="80" as="geometry" />
        </mxCell>
        <mxCell id="GEuDZ0JmBheD2s2upxKQ-35" style="edgeStyle=orthogonalEdgeStyle;rounded=0;orthogonalLoop=1;jettySize=auto;html=1;exitX=0.5;exitY=0;exitDx=0;exitDy=0;" parent="1" source="GEuDZ0JmBheD2s2upxKQ-29" edge="1">
          <mxGeometry relative="1" as="geometry">
            <mxPoint x="450" y="290" as="targetPoint" />
            <Array as="points">
              <mxPoint x="630" y="290" />
            </Array>
          </mxGeometry>
        </mxCell>
        <mxCell id="GEuDZ0JmBheD2s2upxKQ-29" value="Fill missing&amp;nbsp;&lt;br&gt;information" style="rounded=1;whiteSpace=wrap;html=1;fillColor=#dae8fc;strokeColor=#6c8ebf;" parent="1" vertex="1">
          <mxGeometry x="570" y="710" width="120" height="60" as="geometry" />
        </mxCell>
        <mxCell id="GEuDZ0JmBheD2s2upxKQ-37" value="" style="edgeStyle=orthogonalEdgeStyle;rounded=0;orthogonalLoop=1;jettySize=auto;html=1;" parent="1" source="GEuDZ0JmBheD2s2upxKQ-30" target="GEuDZ0JmBheD2s2upxKQ-36" edge="1">
          <mxGeometry relative="1" as="geometry" />
        </mxCell>
        <mxCell id="GEuDZ0JmBheD2s2upxKQ-30" value="Apply for job" style="rounded=1;whiteSpace=wrap;html=1;fillColor=#dae8fc;strokeColor=#6c8ebf;" parent="1" vertex="1">
          <mxGeometry x="390" y="830" width="120" height="60" as="geometry" />
        </mxCell>
        <mxCell id="GEuDZ0JmBheD2s2upxKQ-40" value="" style="edgeStyle=orthogonalEdgeStyle;rounded=0;orthogonalLoop=1;jettySize=auto;html=1;" parent="1" source="GEuDZ0JmBheD2s2upxKQ-36" target="GEuDZ0JmBheD2s2upxKQ-39" edge="1">
          <mxGeometry relative="1" as="geometry" />
        </mxCell>
        <mxCell id="GEuDZ0JmBheD2s2upxKQ-49" value="" style="edgeStyle=orthogonalEdgeStyle;rounded=0;orthogonalLoop=1;jettySize=auto;html=1;" parent="1" source="GEuDZ0JmBheD2s2upxKQ-36" target="GEuDZ0JmBheD2s2upxKQ-38" edge="1">
          <mxGeometry relative="1" as="geometry" />
        </mxCell>
        <mxCell id="GEuDZ0JmBheD2s2upxKQ-36" value="Easy Apply?" style="rhombus;whiteSpace=wrap;html=1;fillColor=#fff2cc;strokeColor=#d6b656;" parent="1" vertex="1">
          <mxGeometry x="570" y="820" width="120" height="80" as="geometry" />
        </mxCell>
        <mxCell id="I5Enc08s2ud8R-opfXtH-39" value="" style="edgeStyle=orthogonalEdgeStyle;rounded=0;orthogonalLoop=1;jettySize=auto;html=1;" parent="1" source="GEuDZ0JmBheD2s2upxKQ-38" target="I5Enc08s2ud8R-opfXtH-38" edge="1">
          <mxGeometry relative="1" as="geometry" />
        </mxCell>
        <mxCell id="GEuDZ0JmBheD2s2upxKQ-38" value="Go to company website" style="rounded=1;whiteSpace=wrap;html=1;fillColor=#dae8fc;strokeColor=#6c8ebf;" parent="1" vertex="1">
          <mxGeometry x="770" y="830" width="120" height="60" as="geometry" />
        </mxCell>
        <mxCell id="GEuDZ0JmBheD2s2upxKQ-42" value="" style="edgeStyle=orthogonalEdgeStyle;rounded=0;orthogonalLoop=1;jettySize=auto;html=1;" parent="1" source="GEuDZ0JmBheD2s2upxKQ-39" target="GEuDZ0JmBheD2s2upxKQ-41" edge="1">
          <mxGeometry relative="1" as="geometry" />
        </mxCell>
        <mxCell id="GEuDZ0JmBheD2s2upxKQ-39" value="Update information" style="rounded=1;whiteSpace=wrap;html=1;fillColor=#dae8fc;strokeColor=#6c8ebf;" parent="1" vertex="1">
          <mxGeometry x="570" y="960" width="120" height="60" as="geometry" />
        </mxCell>
        <mxCell id="GEuDZ0JmBheD2s2upxKQ-46" value="" style="edgeStyle=orthogonalEdgeStyle;rounded=0;orthogonalLoop=1;jettySize=auto;html=1;" parent="1" source="GEuDZ0JmBheD2s2upxKQ-41" target="GEuDZ0JmBheD2s2upxKQ-43" edge="1">
          <mxGeometry relative="1" as="geometry" />
        </mxCell>
        <mxCell id="GEuDZ0JmBheD2s2upxKQ-41" value="Upload resume" style="rounded=1;whiteSpace=wrap;html=1;fillColor=#dae8fc;strokeColor=#6c8ebf;" parent="1" vertex="1">
          <mxGeometry x="570" y="1080" width="120" height="60" as="geometry" />
        </mxCell>
        <mxCell id="GEuDZ0JmBheD2s2upxKQ-47" value="" style="edgeStyle=orthogonalEdgeStyle;rounded=0;orthogonalLoop=1;jettySize=auto;html=1;" parent="1" source="GEuDZ0JmBheD2s2upxKQ-43" target="GEuDZ0JmBheD2s2upxKQ-44" edge="1">
          <mxGeometry relative="1" as="geometry" />
        </mxCell>
        <mxCell id="GEuDZ0JmBheD2s2upxKQ-43" value="Review" style="rounded=1;whiteSpace=wrap;html=1;fillColor=#dae8fc;strokeColor=#6c8ebf;" parent="1" vertex="1">
          <mxGeometry x="570" y="1200" width="120" height="60" as="geometry" />
        </mxCell>
        <mxCell id="I5Enc08s2ud8R-opfXtH-29" value="" style="edgeStyle=orthogonalEdgeStyle;rounded=0;orthogonalLoop=1;jettySize=auto;html=1;" parent="1" source="GEuDZ0JmBheD2s2upxKQ-44" target="GEuDZ0JmBheD2s2upxKQ-45" edge="1">
          <mxGeometry relative="1" as="geometry" />
        </mxCell>
        <mxCell id="GEuDZ0JmBheD2s2upxKQ-44" value="Application submitted" style="rounded=1;whiteSpace=wrap;html=1;fillColor=#dae8fc;strokeColor=#6c8ebf;" parent="1" vertex="1">
          <mxGeometry x="570" y="1330" width="120" height="60" as="geometry" />
        </mxCell>
        <mxCell id="GEuDZ0JmBheD2s2upxKQ-45" value="End" style="ellipse;whiteSpace=wrap;html=1;fillColor=#f8cecc;strokeColor=#b85450;" parent="1" vertex="1">
          <mxGeometry x="570" y="1450" width="120" height="80" as="geometry" />
        </mxCell>
        <mxCell id="GEuDZ0JmBheD2s2upxKQ-53" value="" style="edgeStyle=orthogonalEdgeStyle;rounded=0;orthogonalLoop=1;jettySize=auto;html=1;" parent="1" source="GEuDZ0JmBheD2s2upxKQ-50" target="GEuDZ0JmBheD2s2upxKQ-52" edge="1">
          <mxGeometry relative="1" as="geometry" />
        </mxCell>
        <mxCell id="GEuDZ0JmBheD2s2upxKQ-50" value="Update information" style="whiteSpace=wrap;html=1;rounded=1;fillColor=#dae8fc;strokeColor=#6c8ebf;" parent="1" vertex="1">
          <mxGeometry x="950" y="1080" width="120" height="60" as="geometry" />
        </mxCell>
        <mxCell id="GEuDZ0JmBheD2s2upxKQ-55" value="" style="edgeStyle=orthogonalEdgeStyle;rounded=0;orthogonalLoop=1;jettySize=auto;html=1;" parent="1" source="GEuDZ0JmBheD2s2upxKQ-52" target="GEuDZ0JmBheD2s2upxKQ-54" edge="1">
          <mxGeometry relative="1" as="geometry" />
        </mxCell>
        <mxCell id="GEuDZ0JmBheD2s2upxKQ-52" value="Upload resume" style="whiteSpace=wrap;html=1;rounded=1;fillColor=#dae8fc;strokeColor=#6c8ebf;" parent="1" vertex="1">
          <mxGeometry x="950" y="1210" width="120" height="60" as="geometry" />
        </mxCell>
        <mxCell id="I5Enc08s2ud8R-opfXtH-47" style="edgeStyle=orthogonalEdgeStyle;rounded=0;orthogonalLoop=1;jettySize=auto;html=1;entryX=1;entryY=0.5;entryDx=0;entryDy=0;" parent="1" source="GEuDZ0JmBheD2s2upxKQ-54" target="GEuDZ0JmBheD2s2upxKQ-45" edge="1">
          <mxGeometry relative="1" as="geometry">
            <Array as="points">
              <mxPoint x="1150" y="1360" />
              <mxPoint x="1150" y="1490" />
            </Array>
          </mxGeometry>
        </mxCell>
        <mxCell id="GEuDZ0JmBheD2s2upxKQ-54" value="Submit" style="whiteSpace=wrap;html=1;rounded=1;fillColor=#dae8fc;strokeColor=#6c8ebf;" parent="1" vertex="1">
          <mxGeometry x="950" y="1330" width="120" height="60" as="geometry" />
        </mxCell>
        <mxCell id="I5Enc08s2ud8R-opfXtH-1" value="1" style="text;html=1;align=center;verticalAlign=middle;resizable=0;points=[];autosize=1;strokeColor=none;fillColor=none;" parent="1" vertex="1">
          <mxGeometry x="50" y="108" width="30" height="30" as="geometry" />
        </mxCell>
        <mxCell id="I5Enc08s2ud8R-opfXtH-2" value="2" style="text;html=1;align=center;verticalAlign=middle;resizable=0;points=[];autosize=1;strokeColor=none;fillColor=none;" parent="1" vertex="1">
          <mxGeometry x="50" y="220" width="30" height="30" as="geometry" />
        </mxCell>
        <mxCell id="I5Enc08s2ud8R-opfXtH-3" value="3" style="text;html=1;align=center;verticalAlign=middle;resizable=0;points=[];autosize=1;strokeColor=none;fillColor=none;" parent="1" vertex="1">
          <mxGeometry x="50" y="330" width="30" height="30" as="geometry" />
        </mxCell>
        <mxCell id="I5Enc08s2ud8R-opfXtH-4" value="4" style="text;html=1;align=center;verticalAlign=middle;resizable=0;points=[];autosize=1;strokeColor=none;fillColor=none;" parent="1" vertex="1">
          <mxGeometry x="50" y="440" width="30" height="30" as="geometry" />
        </mxCell>
        <mxCell id="I5Enc08s2ud8R-opfXtH-5" value="5" style="text;html=1;align=center;verticalAlign=middle;resizable=0;points=[];autosize=1;strokeColor=none;fillColor=none;" parent="1" vertex="1">
          <mxGeometry x="160" y="480" width="30" height="30" as="geometry" />
        </mxCell>
        <mxCell id="I5Enc08s2ud8R-opfXtH-8" value="" style="edgeStyle=orthogonalEdgeStyle;rounded=0;orthogonalLoop=1;jettySize=auto;html=1;" parent="1" source="I5Enc08s2ud8R-opfXtH-6" target="GEuDZ0JmBheD2s2upxKQ-10" edge="1">
          <mxGeometry relative="1" as="geometry" />
        </mxCell>
        <mxCell id="I5Enc08s2ud8R-opfXtH-6" value="Filter by job" style="rounded=1;whiteSpace=wrap;html=1;fillColor=#dae8fc;strokeColor=#6c8ebf;" parent="1" vertex="1">
          <mxGeometry x="20" y="480" width="120" height="60" as="geometry" />
        </mxCell>
        <mxCell id="I5Enc08s2ud8R-opfXtH-9" value="6" style="text;html=1;align=center;verticalAlign=middle;resizable=0;points=[];autosize=1;strokeColor=none;fillColor=none;" parent="1" vertex="1">
          <mxGeometry x="335" y="480" width="30" height="30" as="geometry" />
        </mxCell>
        <mxCell id="I5Enc08s2ud8R-opfXtH-11" value="No" style="text;html=1;align=center;verticalAlign=middle;resizable=0;points=[];autosize=1;strokeColor=none;fillColor=none;" parent="1" vertex="1">
          <mxGeometry x="330" y="510" width="40" height="30" as="geometry" />
        </mxCell>
        <mxCell id="I5Enc08s2ud8R-opfXtH-12" value="Yes" style="text;html=1;align=center;verticalAlign=middle;resizable=0;points=[];autosize=1;strokeColor=none;fillColor=none;" parent="1" vertex="1">
          <mxGeometry x="270" y="550" width="40" height="30" as="geometry" />
        </mxCell>
        <mxCell id="I5Enc08s2ud8R-opfXtH-13" value="7" style="text;html=1;align=center;verticalAlign=middle;resizable=0;points=[];autosize=1;strokeColor=none;fillColor=none;" parent="1" vertex="1">
          <mxGeometry x="415" y="370" width="30" height="30" as="geometry" />
        </mxCell>
        <mxCell id="I5Enc08s2ud8R-opfXtH-14" value="8" style="text;html=1;align=center;verticalAlign=middle;resizable=0;points=[];autosize=1;strokeColor=none;fillColor=none;" parent="1" vertex="1">
          <mxGeometry x="240" y="560" width="30" height="30" as="geometry" />
        </mxCell>
        <mxCell id="I5Enc08s2ud8R-opfXtH-15" value="9" style="text;html=1;align=center;verticalAlign=middle;resizable=0;points=[];autosize=1;strokeColor=none;fillColor=none;" parent="1" vertex="1">
          <mxGeometry x="240" y="670" width="30" height="30" as="geometry" />
        </mxCell>
        <mxCell id="I5Enc08s2ud8R-opfXtH-18" value="11" style="text;html=1;align=center;verticalAlign=middle;resizable=0;points=[];autosize=1;strokeColor=none;fillColor=none;" parent="1" vertex="1">
          <mxGeometry x="510" y="710" width="40" height="30" as="geometry" />
        </mxCell>
        <mxCell id="I5Enc08s2ud8R-opfXtH-23" value="10" style="text;html=1;align=center;verticalAlign=middle;resizable=0;points=[];autosize=1;strokeColor=none;fillColor=none;" parent="1" vertex="1">
          <mxGeometry x="335" y="710" width="40" height="30" as="geometry" />
        </mxCell>
        <mxCell id="I5Enc08s2ud8R-opfXtH-24" value="12" style="text;html=1;align=center;verticalAlign=middle;resizable=0;points=[];autosize=1;strokeColor=none;fillColor=none;" parent="1" vertex="1">
          <mxGeometry x="625" y="490" width="40" height="30" as="geometry" />
        </mxCell>
        <mxCell id="I5Enc08s2ud8R-opfXtH-25" value="13" style="text;html=1;align=center;verticalAlign=middle;resizable=0;points=[];autosize=1;strokeColor=none;fillColor=none;" parent="1" vertex="1">
          <mxGeometry x="415" y="790" width="40" height="30" as="geometry" />
        </mxCell>
        <mxCell id="I5Enc08s2ud8R-opfXtH-26" value="Yes" style="text;html=1;align=center;verticalAlign=middle;resizable=0;points=[];autosize=1;strokeColor=none;fillColor=none;" parent="1" vertex="1">
          <mxGeometry x="630" y="910" width="40" height="30" as="geometry" />
        </mxCell>
        <mxCell id="I5Enc08s2ud8R-opfXtH-27" value="No" style="text;html=1;align=center;verticalAlign=middle;resizable=0;points=[];autosize=1;strokeColor=none;fillColor=none;" parent="1" vertex="1">
          <mxGeometry x="700" y="870" width="40" height="30" as="geometry" />
        </mxCell>
        <mxCell id="I5Enc08s2ud8R-opfXtH-28" value="14" style="text;html=1;align=center;verticalAlign=middle;resizable=0;points=[];autosize=1;strokeColor=none;fillColor=none;" parent="1" vertex="1">
          <mxGeometry x="520" y="830" width="40" height="30" as="geometry" />
        </mxCell>
        <mxCell id="I5Enc08s2ud8R-opfXtH-31" value="15" style="text;html=1;align=center;verticalAlign=middle;resizable=0;points=[];autosize=1;strokeColor=none;fillColor=none;" parent="1" vertex="1">
          <mxGeometry x="700" y="830" width="40" height="30" as="geometry" />
        </mxCell>
        <mxCell id="I5Enc08s2ud8R-opfXtH-32" value="16" style="text;html=1;align=center;verticalAlign=middle;resizable=0;points=[];autosize=1;strokeColor=none;fillColor=none;" parent="1" vertex="1">
          <mxGeometry x="900" y="830" width="40" height="30" as="geometry" />
        </mxCell>
        <mxCell id="I5Enc08s2ud8R-opfXtH-33" value="17" style="text;html=1;align=center;verticalAlign=middle;resizable=0;points=[];autosize=1;strokeColor=none;fillColor=none;" parent="1" vertex="1">
          <mxGeometry x="970" y="900" width="40" height="30" as="geometry" />
        </mxCell>
        <mxCell id="I5Enc08s2ud8R-opfXtH-34" value="18" style="text;html=1;align=center;verticalAlign=middle;resizable=0;points=[];autosize=1;strokeColor=none;fillColor=none;" parent="1" vertex="1">
          <mxGeometry x="1070" y="950" width="40" height="30" as="geometry" />
        </mxCell>
        <mxCell id="I5Enc08s2ud8R-opfXtH-35" value="23" style="text;html=1;align=center;verticalAlign=middle;resizable=0;points=[];autosize=1;strokeColor=none;fillColor=none;" parent="1" vertex="1">
          <mxGeometry x="585" y="910" width="40" height="30" as="geometry" />
        </mxCell>
        <mxCell id="I5Enc08s2ud8R-opfXtH-36" value="24" style="text;html=1;align=center;verticalAlign=middle;resizable=0;points=[];autosize=1;strokeColor=none;fillColor=none;" parent="1" vertex="1">
          <mxGeometry x="585" y="1040" width="40" height="30" as="geometry" />
        </mxCell>
        <mxCell id="I5Enc08s2ud8R-opfXtH-37" value="25" style="text;html=1;align=center;verticalAlign=middle;resizable=0;points=[];autosize=1;strokeColor=none;fillColor=none;" parent="1" vertex="1">
          <mxGeometry x="585" y="1160" width="40" height="30" as="geometry" />
        </mxCell>
        <mxCell id="I5Enc08s2ud8R-opfXtH-41" value="" style="edgeStyle=orthogonalEdgeStyle;rounded=0;orthogonalLoop=1;jettySize=auto;html=1;" parent="1" source="I5Enc08s2ud8R-opfXtH-38" target="I5Enc08s2ud8R-opfXtH-40" edge="1">
          <mxGeometry relative="1" as="geometry" />
        </mxCell>
        <mxCell id="I5Enc08s2ud8R-opfXtH-38" value="Check job opening" style="rounded=1;whiteSpace=wrap;html=1;fillColor=#dae8fc;strokeColor=#6c8ebf;" parent="1" vertex="1">
          <mxGeometry x="950" y="830" width="120" height="60" as="geometry" />
        </mxCell>
        <mxCell id="I5Enc08s2ud8R-opfXtH-42" value="" style="edgeStyle=orthogonalEdgeStyle;rounded=0;orthogonalLoop=1;jettySize=auto;html=1;" parent="1" source="I5Enc08s2ud8R-opfXtH-40" target="GEuDZ0JmBheD2s2upxKQ-50" edge="1">
          <mxGeometry relative="1" as="geometry" />
        </mxCell>
        <mxCell id="I5Enc08s2ud8R-opfXtH-49" style="edgeStyle=orthogonalEdgeStyle;rounded=0;orthogonalLoop=1;jettySize=auto;html=1;" parent="1" source="I5Enc08s2ud8R-opfXtH-40" edge="1">
          <mxGeometry relative="1" as="geometry">
            <mxPoint x="1150" y="1360" as="targetPoint" />
          </mxGeometry>
        </mxCell>
        <mxCell id="I5Enc08s2ud8R-opfXtH-40" value="Opening &lt;br&gt;available?" style="rhombus;whiteSpace=wrap;html=1;fillColor=#fff2cc;strokeColor=#d6b656;" parent="1" vertex="1">
          <mxGeometry x="950" y="940" width="120" height="80" as="geometry" />
        </mxCell>
        <mxCell id="I5Enc08s2ud8R-opfXtH-43" value="Yes" style="text;html=1;align=center;verticalAlign=middle;resizable=0;points=[];autosize=1;strokeColor=none;fillColor=none;" parent="1" vertex="1">
          <mxGeometry x="1010" y="1030" width="40" height="30" as="geometry" />
        </mxCell>
        <mxCell id="I5Enc08s2ud8R-opfXtH-45" value="19" style="text;html=1;align=center;verticalAlign=middle;resizable=0;points=[];autosize=1;strokeColor=none;fillColor=none;" parent="1" vertex="1">
          <mxGeometry x="970" y="1030" width="40" height="30" as="geometry" />
        </mxCell>
        <mxCell id="I5Enc08s2ud8R-opfXtH-46" value="20" style="text;html=1;align=center;verticalAlign=middle;resizable=0;points=[];autosize=1;strokeColor=none;fillColor=none;" parent="1" vertex="1">
          <mxGeometry x="970" y="1160" width="40" height="30" as="geometry" />
        </mxCell>
        <mxCell id="I5Enc08s2ud8R-opfXtH-48" value="21" style="text;html=1;align=center;verticalAlign=middle;resizable=0;points=[];autosize=1;strokeColor=none;fillColor=none;" parent="1" vertex="1">
          <mxGeometry x="970" y="1290" width="40" height="30" as="geometry" />
        </mxCell>
        <mxCell id="I5Enc08s2ud8R-opfXtH-50" value="26" style="text;html=1;align=center;verticalAlign=middle;resizable=0;points=[];autosize=1;strokeColor=none;fillColor=none;" parent="1" vertex="1">
          <mxGeometry x="585" y="1280" width="40" height="30" as="geometry" />
        </mxCell>
        <mxCell id="I5Enc08s2ud8R-opfXtH-51" value="27" style="text;html=1;align=center;verticalAlign=middle;resizable=0;points=[];autosize=1;strokeColor=none;fillColor=none;" parent="1" vertex="1">
          <mxGeometry x="585" y="1410" width="40" height="30" as="geometry" />
        </mxCell>
        <mxCell id="I5Enc08s2ud8R-opfXtH-52" value="No" style="text;html=1;align=center;verticalAlign=middle;resizable=0;points=[];autosize=1;strokeColor=none;fillColor=none;" parent="1" vertex="1">
          <mxGeometry x="1070" y="980" width="40" height="30" as="geometry" />
        </mxCell>
        <mxCell id="iTKbP6VjUy9f5SO1_N4n-1" value="22" style="text;html=1;align=center;verticalAlign=middle;resizable=0;points=[];autosize=1;strokeColor=none;fillColor=none;" vertex="1" parent="1">
          <mxGeometry x="850" y="1460" width="40" height="30" as="geometry" />
        </mxCell>
      </root>
    </mxGraphModel>
  </diagram>
</mxfile>
